P3
# Created by Paint Shop Pro 5
48 99
255
160 160 160 160 160 160 160 160 160 160 160 160 160 160 160 160 160 160 
160 160 160 160 160 160 160 160 160 160 160 160 160 160 160 160 160 160 
160 160 160 160 160 160 160 160 160 160 160 160 160 160 160 160 160 160 
160 160 160 160 160 160 160 160 160 160 160 160 160 160 160 160 160 160 
160 160 160 160 160 160 160 160 160 160 160 160 160 160 160 160 160 160 
160 160 160 160 160 160 160 160 160 160 160 160 160 160 160 160 160 160 
160 160 160 160 160 160 160 160 160 160 160 160 160 160 160 160 160 160 
160 160 160 160 160 160 160 160 160 160 160 160 160 160 160 160 160 160 
160 160 160 255 255 255 255 255 255 255 255 255 255 255 255 255 255 255 
255 255 255 255 255 255 255 255 255 255 255 255 255 255 255 255 255 255 
255 255 255 255 255 255 255 255 255 255 255 255 255 255 255 255 255 255 
255 255 255 255 255 255 255 255 255 255 255 255 255 255 255 255 255 255 
255 255 255 255 255 255 255 255 255 255 255 255 255 255 255 255 255 255 
255 255 255 255 255 255 255 255 255 255 255 255 255 255 255 255 255 255 
255 255 255 255 255 255 255 255 255 255 255 255 255 255 255 255 255 255 
255 255 255 255 255 255 255 255 255 255 255 255 255 255 255 160 160 160 
160 160 160 255 255 255 0 0 0 8 4 4 16 6 6 26 8 8 37 9 9 46 10 10 57 11 11 
69 11 11 79 11 11 91 11 11 104 10 10 115 9 9 128 8 8 141 7 7 152 6 6 165 5 5 
178 4 4 189 3 3 202 2 2 215 1 1 225 1 1 238 0 0 250 0 0 255 5 5 255 17 17 
255 29 29 254 40 40 253 53 53 252 66 66 251 77 77 249 91 91 248 104 104 
247 115 115 246 128 128 245 141 141 244 152 152 244 164 164 244 176 176 
244 186 186 244 198 198 245 209 209 246 218 218 248 228 228 250 238 238 
255 255 255 160 160 160 160 160 160 255 255 255 0 0 0 8 4 4 16 7 6 26 9 8 
37 11 9 46 13 10 57 14 11 69 15 11 79 16 11 91 17 11 104 17 10 115 16 9 
128 16 8 141 16 7 152 16 6 165 16 5 178 16 4 189 16 3 202 16 2 215 16 1 
225 17 1 238 17 0 250 18 0 255 23 5 255 34 17 255 45 29 254 55 40 253 67 53 
252 79 66 251 89 77 249 102 91 248 114 104 247 124 115 246 136 128 245 148 141 
244 158 152 244 170 164 244 181 176 244 190 186 244 201 198 245 212 209 
246 220 218 248 229 228 250 239 238 255 255 255 160 160 160 160 160 160 
255 255 255 0 0 0 8 4 4 16 7 6 26 10 8 37 12 9 46 14 10 57 16 11 69 18 11 
79 19 11 91 20 11 104 21 10 115 21 9 128 22 8 141 23 7 152 23 6 165 24 5 
178 24 4 189 25 3 202 26 2 215 26 1 225 27 1 238 28 0 250 29 0 255 34 5 
255 45 17 255 56 29 254 65 40 253 77 53 252 88 66 251 97 77 249 110 91 
248 121 104 247 131 115 246 142 128 245 153 141 244 163 152 244 173 164 
244 184 176 244 193 186 244 203 198 245 213 209 246 221 218 248 230 228 
250 239 238 255 255 255 160 160 160 160 160 160 255 255 255 0 0 0 8 5 4 
16 8 6 26 11 8 37 14 9 46 17 10 57 20 11 69 22 11 79 24 11 91 26 11 104 28 10 
115 29 9 128 31 8 141 32 7 152 33 6 165 35 5 178 37 4 189 38 3 202 40 2 
215 41 1 225 43 1 238 45 0 250 47 0 255 52 5 255 62 17 255 72 29 254 80 40 
253 91 53 252 101 66 251 110 77 249 121 91 248 131 104 247 140 115 246 150 128 
245 161 141 244 169 152 244 179 164 244 189 176 244 197 186 244 207 198 
245 216 209 246 223 218 248 232 228 250 240 238 255 255 255 160 160 160 
160 160 160 255 255 255 0 0 0 8 5 4 16 8 6 26 12 8 37 16 9 46 18 10 57 22 11 
69 25 11 79 27 11 91 30 11 104 32 10 115 34 9 128 36 8 141 39 7 152 40 6 
165 43 5 178 45 4 189 47 3 202 49 2 215 51 1 225 54 1 238 56 0 250 59 0 
255 64 5 255 73 17 255 82 29 254 90 40 253 100 53 252 110 66 251 118 77 
249 128 91 248 138 104 247 146 115 246 156 128 245 165 141 244 174 152 
244 183 164 244 192 176 244 200 186 244 209 198 245 217 209 246 225 218 
248 233 228 250 241 238 255 255 255 160 160 160 160 160 160 255 255 255 
0 0 0 8 5 4 16 9 6 26 14 8 37 18 9 46 21 10 57 25 11 69 29 11 79 32 11 
91 35 11 104 39 10 115 41 9 128 45 8 141 48 7 152 51 6 165 54 5 178 57 4 
189 60 3 202 63 2 215 66 1 225 70 1 238 73 0 250 76 0 255 81 5 255 90 17 
255 98 29 254 105 40 253 114 53 252 123 66 251 130 77 249 139 91 248 148 104 
247 155 115 246 164 128 245 173 141 244 180 152 244 188 164 244 197 176 
244 204 186 244 212 198 245 220 209 246 227 218 248 234 228 250 242 238 
255 255 255 160 160 160 160 160 160 255 255 255 0 0 0 8 5 4 16 10 6 26 14 8 
37 19 9 46 23 10 57 27 11 69 31 11 79 35 11 91 39 11 104 43 10 115 46 9 
128 50 8 141 54 7 152 58 6 165 61 5 178 65 4 189 69 3 202 73 2 215 77 1 
225 80 1 238 84 0 250 88 0 255 93 5 255 101 17 255 109 29 254 116 40 253 124 53 
252 132 66 251 138 77 249 147 91 248 155 104 247 162 115 246 170 128 245 178 141 
244 184 152 244 192 164 244 200 176 244 206 186 244 214 198 245 222 209 
246 228 218 248 235 228 250 242 238 255 255 255 160 160 160 160 160 160 
255 255 255 0 0 0 8 6 4 16 10 6 26 16 8 37 21 9 46 25 10 57 30 11 69 36 11 
79 40 11 91 45 11 104 50 10 115 54 9 128 59 8 141 64 7 152 68 6 165 73 5 
178 78 4 189 82 3 202 87 2 215 92 1 225 96 1 238 101 0 250 106 0 255 111 5 
255 118 17 255 125 29 254 131 40 253 138 53 252 145 66 251 151 77 249 158 91 
248 165 104 247 171 115 246 178 128 245 185 141 244 191 152 244 198 164 
244 205 176 244 211 186 244 217 198 245 224 209 246 230 218 248 236 228 
250 243 238 255 255 255 160 160 160 160 160 160 255 255 255 0 0 0 8 6 4 
16 11 6 26 16 8 37 22 9 46 27 10 57 33 11 69 38 11 79 43 11 91 49 11 104 54 10 
115 59 9 128 64 8 141 70 7 152 75 6 165 80 5 178 86 4 189 91 3 202 96 2 
215 102 1 225 106 1 238 112 0 250 118 0 255 123 5 255 129 17 255 135 29 
254 141 40 253 147 53 252 154 66 251 159 77 249 165 91 248 172 104 247 177 115 
246 184 128 245 190 141 244 195 152 244 202 164 244 208 176 244 213 186 
244 220 198 245 226 209 246 231 218 248 237 228 250 244 238 255 255 255 
160 160 160 160 160 160 255 255 255 0 0 0 8 6 4 16 11 6 26 18 8 37 24 9 
46 29 10 57 36 11 69 42 11 79 48 11 91 54 11 104 61 10 115 66 9 128 73 8 
141 80 7 152 85 6 165 92 5 178 98 4 189 104 3 202 110 2 215 117 1 225 122 1 
238 129 0 250 135 0 255 140 5 255 146 17 255 151 29 254 156 40 253 161 53 
252 167 66 251 171 77 249 177 91 248 182 104 247 186 115 246 192 128 245 197 141 
244 202 152 244 207 164 244 213 176 244 217 186 244 223 198 245 228 209 
246 233 218 248 239 228 250 244 238 255 255 255 160 160 160 160 160 160 
255 255 255 0 0 0 8 6 4 16 12 6 26 19 8 37 25 9 46 31 10 57 38 11 69 45 11 
79 51 11 91 58 11 104 65 10 115 71 9 128 79 8 141 86 7 152 92 6 165 99 5 
178 106 4 189 112 3 202 120 2 215 127 1 225 133 1 238 140 0 250 147 0 255 152 5 
255 157 17 255 162 29 254 166 40 253 171 53 252 175 66 251 179 77 249 184 91 
248 189 104 247 193 115 246 197 128 245 202 141 244 206 152 244 211 164 
244 216 176 244 220 186 244 225 198 245 230 209 246 234 218 248 240 228 
250 245 238 255 255 255 160 160 160 160 160 160 255 255 255 0 0 0 8 7 4 
16 13 6 26 20 8 37 27 9 46 34 10 57 41 11 69 49 11 79 56 11 91 64 11 104 72 10 
115 79 9 128 87 8 141 95 7 152 102 6 165 110 5 178 119 4 189 126 3 202 134 2 
215 142 1 225 149 1 238 157 0 250 165 0 255 170 5 255 174 17 255 178 29 
254 181 40 253 185 53 252 189 66 251 192 77 249 195 91 248 199 104 247 202 115 
246 206 128 245 210 141 244 213 152 244 217 164 244 221 176 244 224 186 
244 228 198 245 233 209 246 236 218 248 241 228 250 246 238 255 255 255 
160 160 160 160 160 160 255 255 255 0 0 0 8 7 4 16 13 6 26 21 8 37 29 9 
46 35 10 57 43 11 69 52 11 79 59 11 91 67 11 104 76 10 115 84 9 128 93 8 
141 102 7 152 109 6 165 118 5 178 127 4 189 134 3 202 143 2 215 152 1 225 159 1 
238 168 0 250 176 0 255 181 5 255 185 17 255 189 29 254 191 40 253 194 53 
252 197 66 251 200 77 249 203 91 248 206 104 247 208 115 246 211 128 245 214 141 
244 217 152 244 220 164 244 224 176 244 227 186 244 230 198 245 234 209 
246 238 218 248 242 228 250 246 238 255 255 255 160 160 160 160 160 160 
255 255 255 0 0 0 8 7 4 16 14 6 26 22 8 37 31 9 46 38 10 57 47 11 69 56 11 
79 64 11 91 73 11 104 83 10 115 91 9 128 101 8 141 111 7 152 119 6 165 129 5 
178 139 4 189 147 3 202 157 2 215 167 1 225 175 1 238 185 0 250 194 0 255 199 5 
255 202 17 255 204 29 254 206 40 253 208 53 252 210 66 251 212 77 249 214 91 
248 216 104 247 217 115 246 220 128 245 222 141 244 223 152 244 226 164 
244 229 176 244 231 186 244 234 198 245 237 209 246 240 218 248 244 228 
250 247 238 255 255 255 160 160 160 160 160 160 255 255 255 0 0 0 8 7 4 
16 14 6 26 23 8 37 32 9 46 40 10 57 49 11 69 59 11 79 67 11 91 77 11 104 87 10 
115 96 9 128 107 8 141 117 7 152 126 6 165 137 5 178 147 4 189 156 3 202 167 2 
215 177 1 225 185 1 238 196 0 250 206 0 255 211 5 255 213 17 255 215 29 
254 216 40 253 218 53 252 219 66 251 220 77 249 221 91 248 223 104 247 224 115 
246 225 128 245 227 141 244 228 152 244 230 164 244 232 176 244 234 186 
244 236 198 245 239 209 246 241 218 248 244 228 250 248 238 255 255 255 
160 160 160 160 160 160 255 255 255 0 0 0 8 8 4 16 15 6 26 24 8 37 34 9 
46 42 10 57 52 11 69 63 11 79 72 11 91 83 11 104 94 10 115 104 9 128 115 8 
141 127 7 152 137 6 165 148 5 178 160 4 189 169 3 202 181 2 215 192 1 225 201 1 
238 213 0 250 224 0 255 229 5 255 230 17 255 231 29 254 231 40 253 232 53 
252 232 66 251 233 77 249 232 91 248 233 104 247 233 115 246 234 128 245 234 141 
244 234 152 244 236 164 244 237 176 244 238 186 244 239 198 245 241 209 
246 243 218 248 246 228 250 249 238 255 255 255 160 160 160 160 160 160 
255 255 255 0 0 0 8 8 4 16 15 6 26 25 8 37 35 9 46 44 10 57 54 11 69 66 11 
79 75 11 91 86 11 104 98 10 115 109 9 128 121 8 141 133 7 152 143 6 165 156 5 
178 168 4 189 178 3 202 190 2 215 202 1 225 212 1 238 224 0 250 235 0 255 240 5 
255 241 17 255 242 29 254 241 40 253 241 53 252 241 66 251 241 77 249 240 91 
248 240 104 247 239 115 246 239 128 245 239 141 244 239 152 244 239 164 
244 240 176 244 241 186 244 241 198 245 243 209 246 244 218 248 247 228 
250 249 238 255 255 255 160 160 160 160 160 160 255 255 255 0 0 0 8 8 4 
16 16 6 26 26 8 37 37 9 46 46 10 56 57 11 68 69 11 78 79 11 90 91 11 103 104 10 
114 115 9 127 128 8 139 141 7 150 152 6 163 165 5 176 178 4 187 189 3 200 202 2 
213 215 1 222 225 1 235 238 0 247 250 0 252 255 5 252 255 17 252 255 29 
252 254 40 251 253 53 250 252 66 249 251 77 247 249 91 246 248 104 245 247 115 
245 246 128 244 245 141 243 244 152 243 244 164 243 244 176 243 244 186 
243 244 198 245 245 209 246 246 218 248 248 228 250 250 238 255 255 255 
160 160 160 160 160 160 255 255 255 0 0 0 8 8 4 15 16 6 25 26 8 35 37 9 
44 46 10 54 57 11 66 69 11 75 79 11 86 91 11 99 104 10 109 115 9 121 128 8 
133 141 7 143 152 6 156 165 5 168 178 4 178 189 3 190 202 2 203 215 1 212 225 1 
224 238 0 235 250 0 240 255 5 241 255 17 242 255 29 242 254 40 241 253 53 
241 252 66 241 251 77 240 249 91 240 248 104 239 247 115 239 246 128 239 245 141 
239 244 152 239 244 164 240 244 176 241 244 186 241 244 198 243 245 209 
244 246 218 247 248 228 249 250 238 255 255 255 160 160 160 160 160 160 
255 255 255 0 0 0 7 8 4 15 16 6 24 26 8 33 37 9 41 46 10 51 57 11 62 69 11 
70 79 11 81 91 11 92 104 10 101 115 9 113 128 8 124 141 7 133 152 6 144 165 5 
156 178 4 165 189 3 176 202 2 187 215 1 196 225 1 207 238 0 218 250 0 223 255 5 
224 255 17 226 255 29 226 254 40 227 253 53 228 252 66 229 251 77 229 249 91 
229 248 104 230 247 115 231 246 128 232 245 141 232 244 152 234 244 164 
235 244 176 237 244 186 238 244 198 240 245 209 242 246 218 245 248 228 
248 250 238 255 255 255 160 160 160 160 160 160 255 255 255 0 0 0 7 8 4 
14 16 6 23 26 8 32 37 9 40 46 10 49 57 11 59 69 11 67 79 11 77 91 11 87 104 10 
96 115 9 107 128 8 117 141 7 126 152 6 137 165 5 147 178 4 156 189 3 167 202 2 
177 215 1 186 225 1 196 238 0 206 250 0 211 255 5 213 255 17 215 255 29 
216 254 40 218 253 53 219 252 66 220 251 77 221 249 91 223 248 104 224 247 115 
225 246 128 227 245 141 228 244 152 230 244 164 232 244 176 234 244 186 
236 244 198 239 245 209 241 246 218 244 248 228 248 250 238 255 255 255 
160 160 160 160 160 160 255 255 255 0 0 0 7 8 4 14 16 6 22 26 8 30 37 9 
37 46 10 46 57 11 55 69 11 62 79 11 71 91 11 81 104 10 89 115 9 98 128 8 
108 141 7 116 152 6 126 165 5 135 178 4 143 189 3 153 202 2 162 215 1 170 225 1 
179 238 0 188 250 0 193 255 5 196 255 17 199 255 29 201 254 40 204 253 53 
206 252 66 208 251 77 210 249 91 212 248 104 214 247 115 217 246 128 219 245 141 
221 244 152 224 244 164 227 244 176 230 244 186 233 244 198 236 245 209 
239 246 218 243 248 228 247 250 238 255 255 255 160 160 160 160 160 160 
255 255 255 0 0 0 7 8 4 13 16 6 21 26 8 29 37 9 35 46 10 43 57 11 52 69 11 
59 79 11 68 91 11 76 104 10 84 115 9 93 128 8 102 141 7 109 152 6 118 165 5 
127 178 4 134 189 3 143 202 2 152 215 1 159 225 1 168 238 0 177 250 0 182 255 5 
185 255 17 189 255 29 191 254 40 194 253 53 197 252 66 200 251 77 203 249 91 
206 248 104 208 247 115 211 246 128 214 245 141 217 244 152 221 244 164 
224 244 176 227 244 186 230 244 198 234 245 209 238 246 218 242 248 228 
246 250 238 255 255 255 160 160 160 160 160 160 255 255 255 0 0 0 7 8 4 
12 16 6 19 26 8 27 37 9 33 46 10 40 57 11 48 69 11 54 79 11 62 91 11 70 104 10 
76 115 9 84 128 8 92 141 7 99 152 6 107 165 5 115 178 4 121 189 3 129 202 2 
137 215 1 143 225 1 151 238 0 159 250 0 164 255 5 168 255 17 173 255 29 
176 254 40 180 253 53 184 252 66 188 251 77 191 249 91 196 248 104 199 247 115 
203 246 128 207 245 141 210 244 152 215 244 164 219 244 176 223 244 186 
227 244 198 232 245 209 236 246 218 241 248 228 246 250 238 255 255 255 
160 160 160 160 160 160 255 255 255 0 0 0 6 8 4 12 16 6 19 26 8 25 37 9 
31 46 10 38 57 11 45 69 11 51 79 11 58 91 11 65 104 10 71 115 9 79 128 8 
86 141 7 92 152 6 99 165 5 106 178 4 112 189 3 120 202 2 127 215 1 133 225 1 
140 238 0 147 250 0 152 255 5 157 255 17 162 255 29 166 254 40 171 253 53 
175 252 66 179 251 77 184 249 91 189 248 104 193 247 115 197 246 128 202 245 141 
206 244 152 211 244 164 216 244 176 220 244 186 225 244 198 230 245 209 
234 246 218 240 248 228 245 250 238 255 255 255 160 160 160 160 160 160 
255 255 255 0 0 0 6 8 4 11 16 6 17 26 8 23 37 9 29 46 10 35 57 11 41 69 11 
46 79 11 52 91 11 59 104 10 64 115 9 70 128 8 76 141 7 82 152 6 88 165 5 
94 178 4 99 189 3 106 202 2 112 215 1 117 225 1 123 238 0 129 250 0 134 255 5 
140 255 17 146 255 29 151 254 40 157 253 53 162 252 66 167 251 77 173 249 91 
179 248 104 183 247 115 189 246 128 195 245 141 200 244 152 205 244 164 
211 244 176 216 244 186 222 244 198 228 245 209 232 246 218 238 248 228 
244 250 238 255 255 255 160 160 160 160 160 160 255 255 255 0 0 0 6 8 4 
11 16 6 16 26 8 22 37 9 27 46 10 33 57 11 38 69 11 43 79 11 49 91 11 54 104 10 
59 115 9 65 128 8 70 141 7 75 152 6 80 165 5 86 178 4 91 189 3 96 202 2 
102 215 1 106 225 1 112 238 0 118 250 0 123 255 5 129 255 17 135 255 29 
141 254 40 147 253 53 154 252 66 159 251 77 165 249 91 172 248 104 177 247 115 
184 246 128 190 245 141 195 244 152 202 244 164 208 244 176 213 244 186 
220 244 198 226 245 209 231 246 218 237 248 228 244 250 238 255 255 255 
160 160 160 160 160 160 255 255 255 0 0 0 6 8 4 10 16 6 15 26 8 20 37 9 
24 46 10 29 57 11 34 69 11 38 79 11 43 91 11 48 104 10 51 115 9 56 128 8 
61 141 7 64 152 6 69 165 5 74 178 4 77 189 3 82 202 2 87 215 1 91 225 1 
95 238 0 100 250 0 105 255 5 112 255 17 119 255 29 126 254 40 133 253 53 
140 252 66 147 251 77 154 249 91 162 248 104 168 247 115 175 246 128 183 245 141 
189 244 152 196 244 164 203 244 176 209 244 186 216 244 198 223 245 209 
229 246 218 236 248 228 243 250 238 255 255 255 160 160 160 160 160 160 
255 255 255 0 0 0 5 8 4 10 16 6 14 26 8 19 37 9 23 46 10 27 57 11 31 69 11 
35 79 11 39 91 11 43 104 10 46 115 9 50 128 8 54 141 7 58 152 6 62 165 5 
65 178 4 69 189 3 73 202 2 77 215 1 80 225 1 84 238 0 88 250 0 93 255 5 
101 255 17 109 255 29 116 254 40 124 253 53 132 252 66 138 251 77 147 249 91 
155 248 104 162 247 115 170 246 128 178 245 141 184 244 152 192 244 164 
200 244 176 206 244 186 214 244 198 222 245 209 228 246 218 235 248 228 
242 250 238 255 255 255 160 160 160 160 160 160 255 255 255 0 0 0 5 8 4 
9 16 6 13 26 8 17 37 9 20 46 10 24 57 11 27 69 11 30 79 11 34 91 11 37 104 10 
39 115 9 42 128 8 45 141 7 47 152 6 50 165 5 53 178 4 56 189 3 59 202 2 
62 215 1 64 225 1 67 238 0 71 250 0 76 255 5 84 255 17 93 255 29 101 254 40 
110 253 53 119 252 66 126 251 77 136 249 91 145 248 104 152 247 115 161 246 128 
170 245 141 178 244 152 187 244 164 195 244 176 202 244 186 211 244 198 
219 245 209 226 246 218 234 248 228 241 250 238 255 255 255 160 160 160 
160 160 160 255 255 255 0 0 0 5 8 4 8 16 6 12 26 8 16 37 9 18 46 10 22 57 11 
25 69 11 27 79 11 30 91 11 32 104 10 34 115 9 36 128 8 39 141 7 40 152 6 
43 165 5 45 178 4 47 189 3 49 202 2 51 215 1 54 225 1 56 238 0 59 250 0 
64 255 5 73 255 17 82 255 29 90 254 40 100 253 53 110 252 66 118 251 77 
128 249 91 138 248 104 146 247 115 156 246 128 165 245 141 174 244 152 
183 244 164 192 244 176 200 244 186 209 244 198 217 245 209 225 246 218 
233 248 228 241 250 238 255 255 255 160 160 160 160 160 160 255 255 255 
0 0 0 5 8 4 8 16 6 11 26 8 14 37 9 16 46 10 19 57 11 21 69 11 22 79 11 
24 91 11 26 104 10 27 115 9 28 128 8 29 141 7 30 152 6 32 165 5 33 178 4 
34 189 3 35 202 2 36 215 1 38 225 1 39 238 0 41 250 0 46 255 5 56 255 17 
66 255 29 75 254 40 86 253 53 97 252 66 106 251 77 117 249 91 128 248 104 
137 247 115 148 246 128 158 245 141 167 244 152 177 244 164 187 244 176 
196 244 186 206 244 198 215 245 209 223 246 218 231 248 228 240 250 238 
255 255 255 160 160 160 160 160 160 255 255 255 0 0 0 4 8 4 7 16 6 10 26 8 
12 37 9 14 46 10 16 57 11 18 69 11 19 79 11 20 91 11 21 104 10 21 115 9 
22 128 8 23 141 7 23 152 6 24 165 5 24 178 4 25 189 3 26 202 2 26 215 1 
27 225 1 28 238 0 29 250 0 34 255 5 45 255 17 56 255 29 65 254 40 77 253 53 
88 252 66 97 251 77 110 249 91 121 248 104 131 247 115 142 246 128 153 245 141 
163 244 152 173 244 164 184 244 176 193 244 186 203 244 198 213 245 209 
221 246 218 230 248 228 239 250 238 255 255 255 160 160 160 160 160 160 
255 255 255 0 0 0 4 8 4 6 16 6 9 26 8 10 37 9 12 46 10 13 57 11 14 69 11 
14 79 11 15 91 11 15 104 10 14 115 9 14 128 8 13 141 7 13 152 6 13 165 5 
12 178 4 12 189 3 12 202 2 11 215 1 12 225 1 11 238 0 12 250 0 17 255 5 
28 255 17 40 255 29 50 254 40 63 253 53 75 252 66 85 251 77 99 249 91 111 248 104 
121 247 115 134 246 128 146 245 141 156 244 152 168 244 164 179 244 176 
189 244 186 200 244 198 211 245 209 219 246 218 229 248 228 239 250 238 
255 255 255 160 160 160 160 160 160 255 255 255 0 0 0 4 8 4 6 16 6 8 26 8 
9 37 9 10 46 10 11 57 11 11 69 11 11 79 11 11 91 11 10 104 10 9 115 9 8 128 8 
7 141 7 6 152 6 5 165 5 4 178 4 3 189 3 2 202 2 1 215 1 1 225 1 0 238 0 
0 250 0 5 255 5 17 255 17 29 255 29 40 254 40 53 253 53 66 252 66 77 251 77 
91 249 91 104 248 104 115 247 115 128 246 128 141 245 141 152 244 152 164 244 164 
176 244 176 186 244 186 198 244 198 209 245 209 218 246 218 228 248 228 
238 250 238 255 255 255 160 160 160 160 160 160 255 255 255 0 0 0 4 8 4 
6 16 7 8 26 9 9 37 11 10 46 13 11 57 14 11 69 15 11 79 16 11 91 17 10 104 17 
9 115 16 8 128 16 7 141 16 6 152 16 5 165 16 4 178 16 3 189 16 2 202 16 
1 215 16 1 225 17 0 238 17 0 250 18 5 255 23 17 255 34 29 255 45 40 254 55 
53 253 67 66 252 79 77 251 89 91 249 102 104 248 114 115 247 124 128 246 136 
141 245 148 152 244 158 164 244 170 176 244 181 186 244 190 198 244 201 
209 245 212 218 246 220 228 248 229 238 250 239 255 255 255 160 160 160 
160 160 160 255 255 255 0 0 0 4 8 4 6 16 7 8 26 10 9 37 12 10 46 14 11 57 16 
11 69 18 11 79 19 11 91 20 10 104 21 9 115 21 8 128 22 7 141 23 6 152 23 
5 165 24 4 178 24 3 189 25 2 202 26 1 215 26 1 225 27 0 238 28 0 250 29 
5 255 34 17 255 45 29 255 56 40 254 65 53 253 77 66 252 88 77 251 97 91 249 110 
104 248 121 115 247 131 128 246 142 141 245 153 152 244 163 164 244 173 
176 244 184 186 244 193 198 244 203 209 245 213 218 246 221 228 248 230 
238 250 239 255 255 255 160 160 160 160 160 160 255 255 255 0 0 0 4 8 5 
6 16 8 8 26 11 9 37 14 10 46 17 11 57 20 11 69 22 11 79 24 11 91 26 10 104 28 
9 115 29 8 128 31 7 141 32 6 152 33 5 165 35 4 178 37 3 189 38 2 202 40 
1 215 41 1 225 43 0 238 45 0 250 47 5 255 52 17 255 62 29 255 72 40 254 80 
53 253 91 66 252 101 77 251 110 91 249 121 104 248 131 115 247 140 128 246 150 
141 245 161 152 244 169 164 244 179 176 244 189 186 244 197 198 244 207 
209 245 216 218 246 223 228 248 232 238 250 240 255 255 255 160 160 160 
160 160 160 255 255 255 0 0 0 4 8 5 6 16 8 8 26 12 9 37 16 10 46 18 11 57 22 
11 69 25 11 79 27 11 91 30 10 104 32 9 115 34 8 128 36 7 141 39 6 152 40 
5 165 43 4 178 45 3 189 47 2 202 49 1 215 51 1 225 54 0 238 56 0 250 59 
5 255 64 17 255 73 29 255 82 40 254 90 53 253 100 66 252 110 77 251 118 
91 249 128 104 248 138 115 247 146 128 246 156 141 245 165 152 244 174 
164 244 183 176 244 192 186 244 200 198 244 209 209 245 217 218 246 225 
228 248 233 238 250 241 255 255 255 160 160 160 160 160 160 255 255 255 
0 0 0 4 8 5 6 16 9 8 26 14 9 37 18 10 46 21 11 57 25 11 69 29 11 79 32 
11 91 35 10 104 39 9 115 41 8 128 45 7 141 48 6 152 51 5 165 54 4 178 57 
3 189 60 2 202 63 1 215 66 1 225 70 0 238 73 0 250 76 5 255 81 17 255 90 
29 255 98 40 254 105 53 253 114 66 252 123 77 251 130 91 249 139 104 248 148 
115 247 155 128 246 164 141 245 173 152 244 180 164 244 188 176 244 197 
186 244 204 198 244 212 209 245 220 218 246 227 228 248 234 238 250 242 
255 255 255 160 160 160 160 160 160 255 255 255 0 0 0 4 8 5 6 16 10 8 26 14 
9 37 19 10 46 23 11 57 27 11 69 31 11 79 35 11 91 39 10 104 43 9 115 46 
8 128 50 7 141 54 6 152 58 5 165 61 4 178 65 3 189 69 2 202 73 1 215 77 
1 225 80 0 238 84 0 250 88 5 255 93 17 255 101 29 255 109 40 254 116 53 253 124 
66 252 132 77 251 138 91 249 147 104 248 155 115 247 162 128 246 170 141 245 178 
152 244 184 164 244 192 176 244 200 186 244 206 198 244 214 209 245 222 
218 246 228 228 248 235 238 250 242 255 255 255 160 160 160 160 160 160 
255 255 255 0 0 0 4 8 6 6 16 10 8 26 16 9 37 21 10 46 25 11 57 30 11 69 36 
11 79 40 11 91 45 10 104 50 9 115 54 8 128 59 7 141 64 6 152 68 5 165 73 
4 178 78 3 189 82 2 202 87 1 215 92 1 225 96 0 238 101 0 250 106 5 255 111 
17 255 118 29 255 125 40 254 131 53 253 138 66 252 145 77 251 151 91 249 158 
104 248 165 115 247 171 128 246 178 141 245 185 152 244 191 164 244 198 
176 244 205 186 244 211 198 244 217 209 245 224 218 246 230 228 248 236 
238 250 243 255 255 255 160 160 160 160 160 160 255 255 255 0 0 0 4 8 6 
6 16 11 8 26 16 9 37 22 10 46 27 11 57 33 11 69 38 11 79 43 11 91 49 10 104 54 
9 115 59 8 128 64 7 141 70 6 152 75 5 165 80 4 178 86 3 189 91 2 202 96 
1 215 102 1 225 106 0 238 112 0 250 118 5 255 123 17 255 129 29 255 135 
40 254 141 53 253 147 66 252 154 77 251 159 91 249 165 104 248 172 115 247 177 
128 246 184 141 245 190 152 244 195 164 244 202 176 244 208 186 244 213 
198 244 220 209 245 226 218 246 231 228 248 237 238 250 244 255 255 255 
160 160 160 160 160 160 255 255 255 0 0 0 4 8 6 6 16 11 8 26 18 9 37 24 
10 46 29 11 57 36 11 69 42 11 79 48 11 91 54 10 104 61 9 115 66 8 128 73 
7 141 80 6 152 85 5 165 92 4 178 98 3 189 104 2 202 110 1 215 117 1 225 122 
0 238 129 0 250 135 5 255 140 17 255 146 29 255 151 40 254 156 53 253 161 
66 252 167 77 251 171 91 249 177 104 248 182 115 247 186 128 246 192 141 245 197 
152 244 202 164 244 207 176 244 213 186 244 217 198 244 223 209 245 228 
218 246 233 228 248 239 238 250 244 255 255 255 160 160 160 160 160 160 
255 255 255 0 0 0 4 8 6 6 16 12 8 26 19 9 37 25 10 46 31 11 57 38 11 69 45 
11 79 51 11 91 58 10 104 65 9 115 71 8 128 79 7 141 86 6 152 92 5 165 99 
4 178 106 3 189 112 2 202 120 1 215 127 1 225 133 0 238 140 0 250 147 5 255 152 
17 255 157 29 255 162 40 254 166 53 253 171 66 252 175 77 251 179 91 249 184 
104 248 189 115 247 193 128 246 197 141 245 202 152 244 206 164 244 211 
176 244 216 186 244 220 198 244 225 209 245 230 218 246 234 228 248 240 
238 250 245 255 255 255 160 160 160 160 160 160 255 255 255 0 0 0 4 8 7 
6 16 13 8 26 20 9 37 27 10 46 34 11 57 41 11 69 49 11 79 56 11 91 64 10 104 72 
9 115 79 8 128 87 7 141 95 6 152 102 5 165 110 4 178 119 3 189 126 2 202 134 
1 215 142 1 225 149 0 238 157 0 250 165 5 255 170 17 255 174 29 255 178 
40 254 181 53 253 185 66 252 189 77 251 192 91 249 195 104 248 199 115 247 202 
128 246 206 141 245 210 152 244 213 164 244 217 176 244 221 186 244 224 
198 244 228 209 245 233 218 246 236 228 248 241 238 250 246 255 255 255 
160 160 160 160 160 160 255 255 255 0 0 0 4 8 7 6 16 13 8 26 21 9 37 29 
10 46 35 11 57 43 11 69 52 11 79 59 11 91 67 10 104 76 9 115 84 8 128 93 
7 141 102 6 152 109 5 165 118 4 178 127 3 189 134 2 202 143 1 215 152 1 225 159 
0 238 168 0 250 176 5 255 181 17 255 185 29 255 189 40 254 191 53 253 194 
66 252 197 77 251 200 91 249 203 104 248 206 115 247 208 128 246 211 141 245 214 
152 244 217 164 244 220 176 244 224 186 244 227 198 244 230 209 245 234 
218 246 238 228 248 242 238 250 246 255 255 255 160 160 160 160 160 160 
255 255 255 0 0 0 4 8 7 6 16 14 8 26 22 9 37 31 10 46 38 11 57 47 11 69 56 
11 79 64 11 91 73 10 104 83 9 115 91 8 128 101 7 141 111 6 152 119 5 165 129 
4 178 139 3 189 147 2 202 157 1 215 167 1 225 175 0 238 185 0 250 194 5 255 199 
17 255 202 29 255 204 40 254 206 53 253 208 66 252 210 77 251 212 91 249 214 
104 248 216 115 247 217 128 246 220 141 245 222 152 244 223 164 244 226 
176 244 229 186 244 231 198 244 234 209 245 237 218 246 240 228 248 244 
238 250 247 255 255 255 160 160 160 160 160 160 255 255 255 0 0 0 4 8 7 
6 16 14 8 26 23 9 37 32 10 46 40 11 57 49 11 69 59 11 79 67 11 91 77 10 104 87 
9 115 96 8 128 107 7 141 117 6 152 126 5 165 137 4 178 147 3 189 156 2 202 167 
1 215 177 1 225 185 0 238 196 0 250 206 5 255 211 17 255 213 29 255 215 
40 254 216 53 253 218 66 252 219 77 251 220 91 249 221 104 248 223 115 247 224 
128 246 225 141 245 227 152 244 228 164 244 230 176 244 232 186 244 234 
198 244 236 209 245 239 218 246 241 228 248 244 238 250 248 255 255 255 
160 160 160 160 160 160 255 255 255 0 0 0 4 8 8 6 16 15 8 26 24 9 37 34 
10 46 42 11 57 52 11 69 63 11 79 72 11 91 83 10 104 94 9 115 104 8 128 115 
7 141 127 6 152 137 5 165 148 4 178 160 3 189 169 2 202 181 1 215 192 1 225 201 
0 238 213 0 250 224 5 255 229 17 255 230 29 255 231 40 254 231 53 253 232 
66 252 232 77 251 233 91 249 232 104 248 233 115 247 233 128 246 234 141 245 234 
152 244 234 164 244 236 176 244 237 186 244 238 198 244 239 209 245 241 
218 246 243 228 248 246 238 250 249 255 255 255 160 160 160 160 160 160 
255 255 255 0 0 0 4 8 8 6 16 15 8 26 25 9 37 35 10 46 44 11 57 54 11 69 66 
11 79 75 11 91 86 10 104 98 9 115 109 8 128 121 7 141 133 6 152 143 5 165 156 
4 178 168 3 189 178 2 202 190 1 215 202 1 225 212 0 238 224 0 250 235 5 255 240 
17 255 241 29 255 242 40 254 241 53 253 241 66 252 241 77 251 241 91 249 240 
104 248 240 115 247 239 128 246 239 141 245 239 152 244 239 164 244 239 
176 244 240 186 244 241 198 244 241 209 245 243 218 246 244 228 248 247 
238 250 249 255 255 255 160 160 160 160 160 160 255 255 255 0 0 0 4 8 8 
6 16 16 8 26 26 9 37 37 10 46 46 11 56 57 11 68 69 11 78 79 11 90 91 10 103 104 
9 114 115 8 127 128 7 139 141 6 150 152 5 163 165 4 176 178 3 187 189 2 200 202 
1 213 215 1 222 225 0 235 238 0 247 250 5 252 255 17 252 255 29 252 255 
40 252 254 53 251 253 66 250 252 77 249 251 91 247 249 104 246 248 115 245 247 
128 245 246 141 244 245 152 243 244 164 243 244 176 243 244 186 243 244 
198 243 244 209 245 245 218 246 246 228 248 248 238 250 250 255 255 255 
160 160 160 160 160 160 255 255 255 0 0 0 4 8 8 6 15 16 8 25 26 9 35 37 
10 44 46 11 54 57 11 66 69 11 75 79 11 86 91 10 99 104 9 109 115 8 121 128 
7 133 141 6 143 152 5 156 165 4 168 178 3 178 189 2 190 202 1 203 215 1 212 225 
0 224 238 0 235 250 5 240 255 17 241 255 29 242 255 40 242 254 53 241 253 
66 241 252 77 241 251 91 240 249 104 240 248 115 239 247 128 239 246 141 239 245 
152 239 244 164 239 244 176 240 244 186 241 244 198 241 244 209 243 245 
218 244 246 228 247 248 238 249 250 255 255 255 160 160 160 160 160 160 
255 255 255 0 0 0 4 7 8 6 15 16 8 24 26 9 33 37 10 41 46 11 51 57 11 62 69 
11 70 79 11 81 91 10 92 104 9 101 115 8 113 128 7 124 141 6 133 152 5 144 165 
4 156 178 3 165 189 2 176 202 1 187 215 1 196 225 0 207 238 0 218 250 5 223 255 
17 224 255 29 226 255 40 226 254 53 227 253 66 228 252 77 229 251 91 229 249 
104 229 248 115 230 247 128 231 246 141 232 245 152 232 244 164 234 244 
176 235 244 186 237 244 198 238 244 209 240 245 218 242 246 228 245 248 
238 248 250 255 255 255 160 160 160 160 160 160 255 255 255 0 0 0 4 7 8 
6 14 16 8 23 26 9 32 37 10 40 46 11 49 57 11 59 69 11 67 79 11 77 91 10 87 104 
9 96 115 8 107 128 7 117 141 6 126 152 5 137 165 4 147 178 3 156 189 2 167 202 
1 177 215 1 186 225 0 196 238 0 206 250 5 211 255 17 213 255 29 215 255 
40 216 254 53 218 253 66 219 252 77 220 251 91 221 249 104 223 248 115 224 247 
128 225 246 141 227 245 152 228 244 164 230 244 176 232 244 186 234 244 
198 236 244 209 239 245 218 241 246 228 244 248 238 248 250 255 255 255 
160 160 160 160 160 160 255 255 255 0 0 0 4 7 8 6 14 16 8 22 26 9 30 37 
10 37 46 11 46 57 11 55 69 11 62 79 11 71 91 10 81 104 9 89 115 8 98 128 
7 108 141 6 116 152 5 126 165 4 135 178 3 143 189 2 153 202 1 162 215 1 170 225 
0 179 238 0 188 250 5 193 255 17 196 255 29 199 255 40 201 254 53 204 253 
66 206 252 77 208 251 91 210 249 104 212 248 115 214 247 128 217 246 141 219 245 
152 221 244 164 224 244 176 227 244 186 230 244 198 233 244 209 236 245 
218 239 246 228 243 248 238 247 250 255 255 255 160 160 160 160 160 160 
255 255 255 0 0 0 4 7 8 6 13 16 8 21 26 9 29 37 10 35 46 11 43 57 11 52 69 
11 59 79 11 68 91 10 76 104 9 84 115 8 93 128 7 102 141 6 109 152 5 118 165 
4 127 178 3 134 189 2 143 202 1 152 215 1 159 225 0 168 238 0 177 250 5 182 255 
17 185 255 29 189 255 40 191 254 53 194 253 66 197 252 77 200 251 91 203 249 
104 206 248 115 208 247 128 211 246 141 214 245 152 217 244 164 221 244 
176 224 244 186 227 244 198 230 244 209 234 245 218 238 246 228 242 248 
238 246 250 255 255 255 160 160 160 160 160 160 255 255 255 0 0 0 4 7 8 
6 12 16 8 19 26 9 27 37 10 33 46 11 40 57 11 48 69 11 54 79 11 62 91 10 70 104 
9 76 115 8 84 128 7 92 141 6 99 152 5 107 165 4 115 178 3 121 189 2 129 202 
1 137 215 1 143 225 0 151 238 0 159 250 5 164 255 17 168 255 29 173 255 
40 176 254 53 180 253 66 184 252 77 188 251 91 191 249 104 196 248 115 199 247 
128 203 246 141 207 245 152 210 244 164 215 244 176 219 244 186 223 244 
198 227 244 209 232 245 218 236 246 228 241 248 238 246 250 255 255 255 
160 160 160 160 160 160 255 255 255 0 0 0 4 6 8 6 12 16 8 19 26 9 25 37 
10 31 46 11 38 57 11 45 69 11 51 79 11 58 91 10 65 104 9 71 115 8 79 128 
7 86 141 6 92 152 5 99 165 4 106 178 3 112 189 2 120 202 1 127 215 1 133 225 
0 140 238 0 147 250 5 152 255 17 157 255 29 162 255 40 166 254 53 171 253 
66 175 252 77 179 251 91 184 249 104 189 248 115 193 247 128 197 246 141 202 245 
152 206 244 164 211 244 176 216 244 186 220 244 198 225 244 209 230 245 
218 234 246 228 240 248 238 245 250 255 255 255 160 160 160 160 160 160 
255 255 255 0 0 0 4 6 8 6 11 16 8 17 26 9 23 37 10 29 46 11 35 57 11 41 69 
11 46 79 11 52 91 10 59 104 9 64 115 8 70 128 7 76 141 6 82 152 5 88 165 
4 94 178 3 99 189 2 106 202 1 112 215 1 117 225 0 123 238 0 129 250 5 134 255 
17 140 255 29 146 255 40 151 254 53 157 253 66 162 252 77 167 251 91 173 249 
104 179 248 115 183 247 128 189 246 141 195 245 152 200 244 164 205 244 
176 211 244 186 216 244 198 222 244 209 228 245 218 232 246 228 238 248 
238 244 250 255 255 255 160 160 160 160 160 160 255 255 255 0 0 0 4 6 8 
6 11 16 8 16 26 9 22 37 10 27 46 11 33 57 11 38 69 11 43 79 11 49 91 10 54 104 
9 59 115 8 65 128 7 70 141 6 75 152 5 80 165 4 86 178 3 91 189 2 96 202 
1 102 215 1 106 225 0 112 238 0 118 250 5 123 255 17 129 255 29 135 255 
40 141 254 53 147 253 66 154 252 77 159 251 91 165 249 104 172 248 115 177 247 
128 184 246 141 190 245 152 195 244 164 202 244 176 208 244 186 213 244 
198 220 244 209 226 245 218 231 246 228 237 248 238 244 250 255 255 255 
160 160 160 160 160 160 255 255 255 0 0 0 4 6 8 6 10 16 8 15 26 9 20 37 
10 24 46 11 29 57 11 34 69 11 38 79 11 43 91 10 48 104 9 51 115 8 56 128 
7 61 141 6 64 152 5 69 165 4 74 178 3 77 189 2 82 202 1 87 215 1 91 225 
0 95 238 0 100 250 5 105 255 17 112 255 29 119 255 40 126 254 53 133 253 
66 140 252 77 147 251 91 154 249 104 162 248 115 168 247 128 175 246 141 183 245 
152 189 244 164 196 244 176 203 244 186 209 244 198 216 244 209 223 245 
218 229 246 228 236 248 238 243 250 255 255 255 160 160 160 160 160 160 
255 255 255 0 0 0 4 5 8 6 10 16 8 14 26 9 19 37 10 23 46 11 27 57 11 31 69 
11 35 79 11 39 91 10 43 104 9 46 115 8 50 128 7 54 141 6 58 152 5 62 165 
4 65 178 3 69 189 2 73 202 1 77 215 1 80 225 0 84 238 0 88 250 5 93 255 
17 101 255 29 109 255 40 116 254 53 124 253 66 132 252 77 138 251 91 147 249 
104 155 248 115 162 247 128 170 246 141 178 245 152 184 244 164 192 244 
176 200 244 186 206 244 198 214 244 209 222 245 218 228 246 228 235 248 
238 242 250 255 255 255 160 160 160 160 160 160 255 255 255 0 0 0 4 5 8 
6 9 16 8 13 26 9 17 37 10 20 46 11 24 57 11 27 69 11 30 79 11 34 91 10 37 104 
9 39 115 8 42 128 7 45 141 6 47 152 5 50 165 4 53 178 3 56 189 2 59 202 
1 62 215 1 64 225 0 67 238 0 71 250 5 76 255 17 84 255 29 93 255 40 101 254 
53 110 253 66 119 252 77 126 251 91 136 249 104 145 248 115 152 247 128 161 246 
141 170 245 152 178 244 164 187 244 176 195 244 186 202 244 198 211 244 
209 219 245 218 226 246 228 234 248 238 241 250 255 255 255 160 160 160 
160 160 160 255 255 255 0 0 0 4 5 8 6 8 16 8 12 26 9 16 37 10 18 46 11 22 57 
11 25 69 11 27 79 11 30 91 10 32 104 9 34 115 8 36 128 7 39 141 6 40 152 
5 43 165 4 45 178 3 47 189 2 49 202 1 51 215 1 54 225 0 56 238 0 59 250 
5 64 255 17 73 255 29 82 255 40 90 254 53 100 253 66 110 252 77 118 251 
91 128 249 104 138 248 115 146 247 128 156 246 141 165 245 152 174 244 
164 183 244 176 192 244 186 200 244 198 209 244 209 217 245 218 225 246 
228 233 248 238 241 250 255 255 255 160 160 160 160 160 160 255 255 255 
0 0 0 4 5 8 6 8 16 8 11 26 9 14 37 10 16 46 11 19 57 11 21 69 11 22 79 
11 24 91 10 26 104 9 27 115 8 28 128 7 29 141 6 30 152 5 32 165 4 33 178 
3 34 189 2 35 202 1 36 215 1 38 225 0 39 238 0 41 250 5 46 255 17 56 255 
29 66 255 40 75 254 53 86 253 66 97 252 77 106 251 91 117 249 104 128 248 
115 137 247 128 148 246 141 158 245 152 167 244 164 177 244 176 187 244 
186 196 244 198 206 244 209 215 245 218 223 246 228 231 248 238 240 250 
255 255 255 160 160 160 160 160 160 255 255 255 0 0 0 4 4 8 6 7 16 8 10 26 
9 12 37 10 14 46 11 16 57 11 18 69 11 19 79 11 20 91 10 21 104 9 21 115 
8 22 128 7 23 141 6 23 152 5 24 165 4 24 178 3 25 189 2 26 202 1 26 215 
1 27 225 0 28 238 0 29 250 5 34 255 17 45 255 29 56 255 40 65 254 53 77 253 
66 88 252 77 97 251 91 110 249 104 121 248 115 131 247 128 142 246 141 153 245 
152 163 244 164 173 244 176 184 244 186 193 244 198 203 244 209 213 245 
218 221 246 228 230 248 238 239 250 255 255 255 160 160 160 160 160 160 
255 255 255 0 0 0 4 4 8 6 6 16 8 9 26 9 10 37 10 12 46 11 13 57 11 14 69 
11 14 79 11 15 91 10 15 104 9 14 115 8 14 128 7 13 141 6 13 152 5 13 165 
4 12 178 3 12 189 2 12 202 1 11 215 1 12 225 0 11 238 0 12 250 5 17 255 
17 28 255 29 40 255 40 50 254 53 63 253 66 75 252 77 85 251 91 99 249 104 111 248 
115 121 247 128 134 246 141 146 245 152 156 244 164 168 244 176 179 244 
186 189 244 198 200 244 209 211 245 218 219 246 228 229 248 238 239 250 
255 255 255 160 160 160 160 160 160 255 255 255 0 0 0 4 4 8 6 6 16 8 8 26 
9 9 37 10 10 46 11 11 57 11 11 69 11 11 79 11 11 91 10 10 104 9 9 115 8 8 128 
7 7 141 6 6 152 5 5 165 4 4 178 3 3 189 2 2 202 1 1 215 1 1 225 0 0 238 
0 0 250 5 5 255 17 17 255 29 29 255 40 40 254 53 53 253 66 66 252 77 77 251 
91 91 249 104 104 248 115 115 247 128 128 246 141 141 245 152 152 244 164 164 244 
176 176 244 186 186 244 198 198 244 209 209 245 218 218 246 228 228 248 
238 238 250 255 255 255 160 160 160 160 160 160 255 255 255 0 0 0 4 4 8 
7 6 16 9 8 26 11 9 37 13 10 46 14 11 57 15 11 69 16 11 79 17 11 91 17 10 104 
16 9 115 16 8 128 16 7 141 16 6 152 16 5 165 16 4 178 16 3 189 16 2 202 
16 1 215 17 1 225 17 0 238 18 0 250 23 5 255 34 17 255 45 29 255 55 40 254 
67 53 253 79 66 252 89 77 251 102 91 249 114 104 248 124 115 247 136 128 246 
148 141 245 158 152 244 170 164 244 181 176 244 190 186 244 201 198 244 
212 209 245 220 218 246 229 228 248 239 238 250 255 255 255 160 160 160 
160 160 160 255 255 255 0 0 0 4 4 8 7 6 16 10 8 26 12 9 37 14 10 46 16 11 57 
18 11 69 19 11 79 20 11 91 21 10 104 21 9 115 22 8 128 23 7 141 23 6 152 
24 5 165 24 4 178 25 3 189 26 2 202 26 1 215 27 1 225 28 0 238 29 0 250 
34 5 255 45 17 255 56 29 255 65 40 254 77 53 253 88 66 252 97 77 251 110 91 249 
121 104 248 131 115 247 142 128 246 153 141 245 163 152 244 173 164 244 
184 176 244 193 186 244 203 198 244 213 209 245 221 218 246 230 228 248 
239 238 250 255 255 255 160 160 160 160 160 160 255 255 255 0 0 0 5 4 8 
8 6 16 11 8 26 14 9 37 17 10 46 20 11 57 22 11 69 24 11 79 26 11 91 28 10 104 
29 9 115 31 8 128 32 7 141 33 6 152 35 5 165 37 4 178 38 3 189 40 2 202 
41 1 215 43 1 225 45 0 238 47 0 250 52 5 255 62 17 255 72 29 255 80 40 254 
91 53 253 101 66 252 110 77 251 121 91 249 131 104 248 140 115 247 150 128 246 
161 141 245 169 152 244 179 164 244 189 176 244 197 186 244 207 198 244 
216 209 245 223 218 246 232 228 248 240 238 250 255 255 255 160 160 160 
160 160 160 255 255 255 0 0 0 5 4 8 8 6 16 12 8 26 16 9 37 18 10 46 22 11 57 
25 11 69 27 11 79 30 11 91 32 10 104 34 9 115 36 8 128 39 7 141 40 6 152 
43 5 165 45 4 178 47 3 189 49 2 202 51 1 215 54 1 225 56 0 238 59 0 250 
64 5 255 73 17 255 82 29 255 90 40 254 100 53 253 110 66 252 118 77 251 
128 91 249 138 104 248 146 115 247 156 128 246 165 141 245 174 152 244 
183 164 244 192 176 244 200 186 244 209 198 244 217 209 245 225 218 246 
233 228 248 241 238 250 255 255 255 160 160 160 160 160 160 255 255 255 
0 0 0 5 4 8 9 6 16 14 8 26 18 9 37 21 10 46 25 11 57 29 11 69 32 11 79 
35 11 91 39 10 104 41 9 115 45 8 128 48 7 141 51 6 152 54 5 165 57 4 178 
60 3 189 63 2 202 66 1 215 70 1 225 73 0 238 76 0 250 81 5 255 90 17 255 
98 29 255 105 40 254 114 53 253 123 66 252 130 77 251 139 91 249 148 104 248 
155 115 247 164 128 246 173 141 245 180 152 244 188 164 244 197 176 244 
204 186 244 212 198 244 220 209 245 227 218 246 234 228 248 242 238 250 
255 255 255 160 160 160 160 160 160 255 255 255 0 0 0 5 4 8 10 6 16 14 8 26 
19 9 37 23 10 46 27 11 57 31 11 69 35 11 79 39 11 91 43 10 104 46 9 115 
50 8 128 54 7 141 58 6 152 61 5 165 65 4 178 69 3 189 73 2 202 77 1 215 
80 1 225 84 0 238 88 0 250 93 5 255 101 17 255 109 29 255 116 40 254 124 53 253 
132 66 252 138 77 251 147 91 249 155 104 248 162 115 247 170 128 246 178 141 245 
184 152 244 192 164 244 200 176 244 206 186 244 214 198 244 222 209 245 
228 218 246 235 228 248 242 238 250 255 255 255 160 160 160 160 160 160 
255 255 255 0 0 0 6 4 8 10 6 16 16 8 26 21 9 37 25 10 46 30 11 57 36 11 69 
40 11 79 45 11 91 50 10 104 54 9 115 59 8 128 64 7 141 68 6 152 73 5 165 
78 4 178 82 3 189 87 2 202 92 1 215 96 1 225 101 0 238 106 0 250 111 5 255 
118 17 255 125 29 255 131 40 254 138 53 253 145 66 252 151 77 251 158 91 249 
165 104 248 171 115 247 178 128 246 185 141 245 191 152 244 198 164 244 
205 176 244 211 186 244 217 198 244 224 209 245 230 218 246 236 228 248 
243 238 250 255 255 255 160 160 160 160 160 160 255 255 255 0 0 0 6 4 8 
11 6 16 16 8 26 22 9 37 27 10 46 33 11 57 38 11 69 43 11 79 49 11 91 54 10 104 
59 9 115 64 8 128 70 7 141 75 6 152 80 5 165 86 4 178 91 3 189 96 2 202 
102 1 215 106 1 225 112 0 238 118 0 250 123 5 255 129 17 255 135 29 255 
141 40 254 147 53 253 154 66 252 159 77 251 165 91 249 172 104 248 177 115 247 
184 128 246 190 141 245 195 152 244 202 164 244 208 176 244 213 186 244 
220 198 244 226 209 245 231 218 246 237 228 248 244 238 250 255 255 255 
160 160 160 160 160 160 255 255 255 0 0 0 6 4 8 11 6 16 18 8 26 24 9 37 
29 10 46 36 11 57 42 11 69 48 11 79 54 11 91 61 10 104 66 9 115 73 8 128 
80 7 141 85 6 152 92 5 165 98 4 178 104 3 189 110 2 202 117 1 215 122 1 225 
129 0 238 135 0 250 140 5 255 146 17 255 151 29 255 156 40 254 161 53 253 
167 66 252 171 77 251 177 91 249 182 104 248 186 115 247 192 128 246 197 141 245 
202 152 244 207 164 244 213 176 244 217 186 244 223 198 244 228 209 245 
233 218 246 239 228 248 244 238 250 255 255 255 160 160 160 160 160 160 
255 255 255 0 0 0 6 4 8 12 6 16 19 8 26 25 9 37 31 10 46 38 11 57 45 11 69 
51 11 79 58 11 91 65 10 104 71 9 115 79 8 128 86 7 141 92 6 152 99 5 165 
106 4 178 112 3 189 120 2 202 127 1 215 133 1 225 140 0 238 147 0 250 152 5 255 
157 17 255 162 29 255 166 40 254 171 53 253 175 66 252 179 77 251 184 91 249 
189 104 248 193 115 247 197 128 246 202 141 245 206 152 244 211 164 244 
216 176 244 220 186 244 225 198 244 230 209 245 234 218 246 240 228 248 
245 238 250 255 255 255 160 160 160 160 160 160 255 255 255 0 0 0 7 4 8 
13 6 16 20 8 26 27 9 37 34 10 46 41 11 57 49 11 69 56 11 79 64 11 91 72 10 104 
79 9 115 87 8 128 95 7 141 102 6 152 110 5 165 119 4 178 126 3 189 134 2 202 
142 1 215 149 1 225 157 0 238 165 0 250 170 5 255 174 17 255 178 29 255 
181 40 254 185 53 253 189 66 252 192 77 251 195 91 249 199 104 248 202 115 247 
206 128 246 210 141 245 213 152 244 217 164 244 221 176 244 224 186 244 
228 198 244 233 209 245 236 218 246 241 228 248 246 238 250 255 255 255 
160 160 160 160 160 160 255 255 255 0 0 0 7 4 8 13 6 16 21 8 26 29 9 37 
35 10 46 43 11 57 52 11 69 59 11 79 67 11 91 76 10 104 84 9 115 93 8 128 
102 7 141 109 6 152 118 5 165 127 4 178 134 3 189 143 2 202 152 1 215 159 1 225 
168 0 238 176 0 250 181 5 255 185 17 255 189 29 255 191 40 254 194 53 253 
197 66 252 200 77 251 203 91 249 206 104 248 208 115 247 211 128 246 214 141 245 
217 152 244 220 164 244 224 176 244 227 186 244 230 198 244 234 209 245 
238 218 246 242 228 248 246 238 250 255 255 255 160 160 160 160 160 160 
255 255 255 0 0 0 7 4 8 14 6 16 22 8 26 31 9 37 38 10 46 47 11 57 56 11 69 
64 11 79 73 11 91 83 10 104 91 9 115 101 8 128 111 7 141 119 6 152 129 5 165 
139 4 178 147 3 189 157 2 202 167 1 215 175 1 225 185 0 238 194 0 250 199 5 255 
202 17 255 204 29 255 206 40 254 208 53 253 210 66 252 212 77 251 214 91 249 
216 104 248 217 115 247 220 128 246 222 141 245 223 152 244 226 164 244 
229 176 244 231 186 244 234 198 244 237 209 245 240 218 246 244 228 248 
247 238 250 255 255 255 160 160 160 160 160 160 255 255 255 0 0 0 7 4 8 
14 6 16 23 8 26 32 9 37 40 10 46 49 11 57 59 11 69 67 11 79 77 11 91 87 10 104 
96 9 115 107 8 128 117 7 141 126 6 152 137 5 165 147 4 178 156 3 189 167 2 202 
177 1 215 185 1 225 196 0 238 206 0 250 211 5 255 213 17 255 215 29 255 
216 40 254 218 53 253 219 66 252 220 77 251 221 91 249 223 104 248 224 115 247 
225 128 246 227 141 245 228 152 244 230 164 244 232 176 244 234 186 244 
236 198 244 239 209 245 241 218 246 244 228 248 248 238 250 255 255 255 
160 160 160 160 160 160 255 255 255 0 0 0 8 4 8 15 6 16 24 8 26 34 9 37 
42 10 46 52 11 57 63 11 69 72 11 79 83 11 91 94 10 104 104 9 115 115 8 128 
127 7 141 137 6 152 148 5 165 160 4 178 169 3 189 181 2 202 192 1 215 201 1 225 
213 0 238 224 0 250 229 5 255 230 17 255 231 29 255 231 40 254 232 53 253 
232 66 252 233 77 251 232 91 249 233 104 248 233 115 247 234 128 246 234 141 245 
234 152 244 236 164 244 237 176 244 238 186 244 239 198 244 241 209 245 
243 218 246 246 228 248 249 238 250 255 255 255 160 160 160 160 160 160 
255 255 255 0 0 0 8 4 8 15 6 16 25 8 26 35 9 37 44 10 46 54 11 57 66 11 69 
75 11 79 86 11 91 98 10 104 109 9 115 121 8 128 133 7 141 143 6 152 156 5 165 
168 4 178 178 3 189 190 2 202 202 1 215 212 1 225 224 0 238 235 0 250 240 5 255 
241 17 255 242 29 255 241 40 254 241 53 253 241 66 252 241 77 251 240 91 249 
240 104 248 239 115 247 239 128 246 239 141 245 239 152 244 239 164 244 
240 176 244 241 186 244 241 198 244 243 209 245 244 218 246 247 228 248 
249 238 250 255 255 255 160 160 160 160 160 160 255 255 255 0 0 0 8 4 8 
16 6 16 26 8 26 37 9 37 46 10 46 57 11 56 69 11 68 79 11 78 91 11 90 104 10 103 
115 9 114 128 8 127 141 7 139 152 6 150 165 5 163 178 4 176 189 3 187 202 2 200 
215 1 213 225 1 222 238 0 235 250 0 247 255 5 252 255 17 252 255 29 252 
254 40 252 253 53 251 252 66 250 251 77 249 249 91 247 248 104 246 247 115 245 
246 128 245 245 141 244 244 152 243 244 164 243 244 176 243 244 186 243 
244 198 243 245 209 245 246 218 246 248 228 248 250 238 250 255 255 255 
160 160 160 160 160 160 255 255 255 0 0 0 8 4 8 16 6 15 26 8 25 37 9 35 
46 10 44 57 11 54 69 11 66 79 11 75 91 11 86 104 10 99 115 9 109 128 8 121 
141 7 133 152 6 143 165 5 156 178 4 168 189 3 178 202 2 190 215 1 203 225 1 212 
238 0 224 250 0 235 255 5 240 255 17 241 255 29 242 254 40 242 253 53 241 
252 66 241 251 77 241 249 91 240 248 104 240 247 115 239 246 128 239 245 141 239 
244 152 239 244 164 239 244 176 240 244 186 241 244 198 241 245 209 243 
246 218 244 248 228 247 250 238 249 255 255 255 160 160 160 160 160 160 
255 255 255 0 0 0 8 4 7 16 6 15 26 8 24 37 9 33 46 10 41 57 11 51 69 11 62 
79 11 70 91 11 81 104 10 92 115 9 101 128 8 113 141 7 124 152 6 133 165 5 144 
178 4 156 189 3 165 202 2 176 215 1 187 225 1 196 238 0 207 250 0 218 255 5 223 
255 17 224 255 29 226 254 40 226 253 53 227 252 66 228 251 77 229 249 91 229 
248 104 229 247 115 230 246 128 231 245 141 232 244 152 232 244 164 234 
244 176 235 244 186 237 244 198 238 245 209 240 246 218 242 248 228 245 
250 238 248 255 255 255 160 160 160 160 160 160 255 255 255 0 0 0 8 4 7 
16 6 14 26 8 23 37 9 32 46 10 40 57 11 49 69 11 59 79 11 67 91 11 77 104 10 87 
115 9 96 128 8 107 141 7 117 152 6 126 165 5 137 178 4 147 189 3 156 202 2 167 
215 1 177 225 1 186 238 0 196 250 0 206 255 5 211 255 17 213 255 29 215 
254 40 216 253 53 218 252 66 219 251 77 220 249 91 221 248 104 223 247 115 224 
246 128 225 245 141 227 244 152 228 244 164 230 244 176 232 244 186 234 
244 198 236 245 209 239 246 218 241 248 228 244 250 238 248 255 255 255 
160 160 160 160 160 160 255 255 255 0 0 0 8 4 7 16 6 14 26 8 22 37 9 30 
46 10 37 57 11 46 69 11 55 79 11 62 91 11 71 104 10 81 115 9 89 128 8 98 
141 7 108 152 6 116 165 5 126 178 4 135 189 3 143 202 2 153 215 1 162 225 1 170 
238 0 179 250 0 188 255 5 193 255 17 196 255 29 199 254 40 201 253 53 204 
252 66 206 251 77 208 249 91 210 248 104 212 247 115 214 246 128 217 245 141 219 
244 152 221 244 164 224 244 176 227 244 186 230 244 198 233 245 209 236 
246 218 239 248 228 243 250 238 247 255 255 255 160 160 160 160 160 160 
255 255 255 0 0 0 8 4 7 16 6 13 26 8 21 37 9 29 46 10 35 57 11 43 69 11 52 
79 11 59 91 11 68 104 10 76 115 9 84 128 8 93 141 7 102 152 6 109 165 5 118 
178 4 127 189 3 134 202 2 143 215 1 152 225 1 159 238 0 168 250 0 177 255 5 182 
255 17 185 255 29 189 254 40 191 253 53 194 252 66 197 251 77 200 249 91 203 
248 104 206 247 115 208 246 128 211 245 141 214 244 152 217 244 164 221 
244 176 224 244 186 227 244 198 230 245 209 234 246 218 238 248 228 242 
250 238 246 255 255 255 160 160 160 160 160 160 255 255 255 0 0 0 8 4 7 
16 6 12 26 8 19 37 9 27 46 10 33 57 11 40 69 11 48 79 11 54 91 11 62 104 10 70 
115 9 76 128 8 84 141 7 92 152 6 99 165 5 107 178 4 115 189 3 121 202 2 129 
215 1 137 225 1 143 238 0 151 250 0 159 255 5 164 255 17 168 255 29 173 
254 40 176 253 53 180 252 66 184 251 77 188 249 91 191 248 104 196 247 115 199 
246 128 203 245 141 207 244 152 210 244 164 215 244 176 219 244 186 223 
244 198 227 245 209 232 246 218 236 248 228 241 250 238 246 255 255 255 
160 160 160 160 160 160 255 255 255 0 0 0 8 4 6 16 6 12 26 8 19 37 9 25 
46 10 31 57 11 38 69 11 45 79 11 51 91 11 58 104 10 65 115 9 71 128 8 79 
141 7 86 152 6 92 165 5 99 178 4 106 189 3 112 202 2 120 215 1 127 225 1 133 
238 0 140 250 0 147 255 5 152 255 17 157 255 29 162 254 40 166 253 53 171 
252 66 175 251 77 179 249 91 184 248 104 189 247 115 193 246 128 197 245 141 202 
244 152 206 244 164 211 244 176 216 244 186 220 244 198 225 245 209 230 
246 218 234 248 228 240 250 238 245 255 255 255 160 160 160 160 160 160 
255 255 255 0 0 0 8 4 6 16 6 11 26 8 17 37 9 23 46 10 29 57 11 35 69 11 41 
79 11 46 91 11 52 104 10 59 115 9 64 128 8 70 141 7 76 152 6 82 165 5 88 
178 4 94 189 3 99 202 2 106 215 1 112 225 1 117 238 0 123 250 0 129 255 5 134 
255 17 140 255 29 146 254 40 151 253 53 157 252 66 162 251 77 167 249 91 173 
248 104 179 247 115 183 246 128 189 245 141 195 244 152 200 244 164 205 
244 176 211 244 186 216 244 198 222 245 209 228 246 218 232 248 228 238 
250 238 244 255 255 255 160 160 160 160 160 160 255 255 255 0 0 0 8 4 6 
16 6 11 26 8 16 37 9 22 46 10 27 57 11 33 69 11 38 79 11 43 91 11 49 104 10 54 
115 9 59 128 8 65 141 7 70 152 6 75 165 5 80 178 4 86 189 3 91 202 2 96 
215 1 102 225 1 106 238 0 112 250 0 118 255 5 123 255 17 129 255 29 135 
254 40 141 253 53 147 252 66 154 251 77 159 249 91 165 248 104 172 247 115 177 
246 128 184 245 141 190 244 152 195 244 164 202 244 176 208 244 186 213 
244 198 220 245 209 226 246 218 231 248 228 237 250 238 244 255 255 255 
160 160 160 160 160 160 255 255 255 0 0 0 8 4 6 16 6 10 26 8 15 37 9 20 
46 10 24 57 11 29 69 11 34 79 11 38 91 11 43 104 10 48 115 9 51 128 8 56 
141 7 61 152 6 64 165 5 69 178 4 74 189 3 77 202 2 82 215 1 87 225 1 91 
238 0 95 250 0 100 255 5 105 255 17 112 255 29 119 254 40 126 253 53 133 
252 66 140 251 77 147 249 91 154 248 104 162 247 115 168 246 128 175 245 141 183 
244 152 189 244 164 196 244 176 203 244 186 209 244 198 216 245 209 223 
246 218 229 248 228 236 250 238 243 255 255 255 160 160 160 160 160 160 
160 160 160 160 160 160 160 160 160 160 160 160 160 160 160 160 160 160 
160 160 160 160 160 160 160 160 160 160 160 160 160 160 160 160 160 160 
160 160 160 160 160 160 160 160 160 160 160 160 160 160 160 160 160 160 
160 160 160 160 160 160 160 160 160 160 160 160 160 160 160 160 160 160 
160 160 160 160 160 160 160 160 160 160 160 160 160 160 160 160 160 160 
160 160 160 160 160 160 160 160 160 160 160 160 160 160 160 160 160 160 
160 160 160 160 160 160 160 160 160 160 160 160 160 160 160 160 160 160 
160 160 160 160 160 160 160 160 160 160 160 160 160 160 160 
